<?xml version="1.0" encoding="utf-8"?>
<!-- Uploaded to: SVG Repo, www.svgrepo.com, Generator: SVG Repo Mixer Tools -->
<svg width="800px" height="800px" viewBox="-65.36 0 282.484 282.484" xmlns="http://www.w3.org/2000/svg"><defs><style>.a{fill:#ffffff;}.b{fill:#211715;}.c{fill:#bd957a;}.d{fill:#f2635f;}.e{fill:#f8b1af;}.f{fill:#ffda71;}</style></defs><path class="a" d="M51.979,46.706a18.673,18.673,0,0,1-5.135,1.885s-1,.128-1.787.223a4.371,4.371,0,0,0-2.458-.361A4.063,4.063,0,0,0,39.676,50.4a5.734,5.734,0,0,0-.6,2.312,17.228,17.228,0,0,0,1.756,9.13,10.948,10.948,0,0,0,2.831,3.715,4.113,4.113,0,0,0,3.73,1.179l.734-.2a30.971,30.971,0,0,0,6.137,10.43,27.263,27.263,0,0,0,9.8,7.235c-.048.371-.118.8-.207,1.3-.37,2.12-.97,4.52-3.78,6.08-.2.06-3.87,1.81-4.17,1.93,0,0,1.933,16.941,18.822,16.941S96.807,93.513,96.807,93.513c-.29-.12-3.97-1.87-4.16-1.93-2.82-1.56-3.42-3.96-3.78-6.08-.149-.826-.239-1.455-.309-2,6.961-3.165,12.511-12.068,13.5-14.566.18-.511.582-1.557.887-2.758l.5.151a3.3,3.3,0,0,0,3.31-.774,10.945,10.945,0,0,0,2.83-3.715,17.219,17.219,0,0,0,1.757-9.13,5.752,5.752,0,0,0-.6-2.312,4.063,4.063,0,0,0-2.923-1.943,4.289,4.289,0,0,0-2.078.212l-1.246-.712c-1.477-.844-5.127-3.143-6.42-4.085-.37-.221-.739-.451-1.1-.694-.31-.21-.621-.42-.923-.64-4.574-3.263-8.317-7.842-9.643-12.065-4.036,4.713-9.793,8-14.15,8.176-1.147.191.584-4.4,1.42-6.524-6.661,4.385-14.616,11.036-21.7,14.584"/><path class="b" d="M51.979,46.706a18.673,18.673,0,0,1-5.135,1.885s-1,.128-1.787.223a4.156,4.156,0,0,0-1.628-.388c.194,1.9-.971-5.089-.79-9.209a31.059,31.059,0,0,1,13.408-24.5A32.578,32.578,0,0,1,75.376,8.764a34.257,34.257,0,0,1,11.41,1.872A32.451,32.451,0,0,1,91.6,12.793a37.829,37.829,0,0,1,5.511,3.655c.659.573,1.628,1.515,2.266,2.16a30.115,30.115,0,0,1,4.188,5.3,31.626,31.626,0,0,1,4.552,15.311,42.319,42.319,0,0,1-.559,8.992l-.036.219a4.241,4.241,0,0,0-1.789.232c-.719-.407-1.245-.707-1.245-.707-1.477-.844-5.127-3.143-6.42-4.085-.37-.221-.739-.451-1.1-.694-.31-.21-.621-.42-.923-.64-4.574-3.263-8.317-7.842-9.643-12.065-4.036,4.713-9.793,8-14.15,8.176-1.147.191.584-4.4,1.42-6.524-6.661,4.385-14.616,11.036-21.7,14.584"/><path class="a" d="M132.644,162.011a38.085,38.085,0,0,0,2.609,5.4,72.9,72.9,0,0,0,9.236,10.531c2.491,2.341,5.373,4.995,5.267,8.411a2.5,2.5,0,0,1-2.436,2.729c-2.2.285-4.338-.746-6.249-1.867a52.532,52.532,0,0,1-6.417-4.436c-.456,2.2-3.011,3.249-5.218,2.969a3.138,3.138,0,0,1-2.6-2.739c-.445-2.334-.778-4.445-.963-5.445-.2-1.078-.612-3.5-.914-4.556l-2.124-9.888"/><path class="a" d="M19.12,162.011a37.976,37.976,0,0,1-2.609,5.4,72.9,72.9,0,0,1-9.236,10.531c-2.491,2.341-5.373,4.995-5.267,8.411a2.93,2.93,0,0,0,.713,1.987,2.917,2.917,0,0,0,1.724.742c2.2.285,4.337-.746,6.248-1.867a52.532,52.532,0,0,0,6.417-4.436c.456,2.2,3.011,3.249,5.218,2.969a3.138,3.138,0,0,0,2.6-2.739c.445-2.334.778-4.445.963-5.445.2-1.078.612-3.5.914-4.556l2.124-9.888"/><path class="a" d="M57.075,275.084a25.378,25.378,0,0,1-4.771,3.7,15.911,15.911,0,0,1-9.292,1.548,9.763,9.763,0,0,1-4.689-1.848,6.663,6.663,0,0,1-2.558-4.625c-.2-2.653,1.239-5.166,2.925-7.044,3.948-4.4,8.113-8.721,11.716-13.452a1.87,1.87,0,0,1,2.227-.7c2.1.917,4.617.876,7.6.938a11.54,11.54,0,0,0,7.425-2.59c2.281-1.743,2.707,5.98,2.763,7.628.088,2.609.471,6.055-1.379,7.984-1.329,1.386-3.614,2.355-5.235,3.274A36.581,36.581,0,0,0,57.075,275.084Z"/><path class="a" d="M97.776,275.084a24.822,24.822,0,0,0,4.649,3.7,15.159,15.159,0,0,0,9.055,1.548,9.377,9.377,0,0,0,4.57-1.848,6.707,6.707,0,0,0,2.493-4.625c.195-2.653-1.207-5.166-2.85-7.044-3.848-4.4-7.907-8.721-11.418-13.452a1.8,1.8,0,0,0-2.17-.7c-2.044.917-4.5.876-7.4.938a11.071,11.071,0,0,1-7.237-2.59c-2.222-1.743-2.638,5.98-2.692,7.628-.086,2.609-.459,6.055,1.344,7.984,1.3,1.386,3.522,2.355,5.1,3.274A35.782,35.782,0,0,1,97.776,275.084Z"/><path class="a" d="M51.82,251.008c.447-4.233.577-13.532.687-20.9,5.123.049,13.047.043,18.145.015-.044.414-.071.692-.071.692-.434,3.963-1.6,13.5-2.276,19.684a11.842,11.842,0,0,1-8.056,3.1c-3.459-.072-6.3,0-8.577-1.461C51.725,251.82,51.774,251.44,51.82,251.008Z"/><path class="a" d="M102.267,251.686c-.513-3.594-1.03-13.792-1.141-21.232,0,0,0-.116,0-.331-5.269.039-12.723.031-17.431,0,.038.429.059.709.059.709.39,3.566.987,12.084,1.581,18.323,2.561,2.657,5.5,4.522,9.266,4.442,3.094-.066,5.679-.015,7.8-1.132C102.356,252.262,102.312,252,102.267,251.686Z"/><path class="c" d="M39.2,68.632A4.865,4.865,0,0,1,42.9,64.85a8.257,8.257,0,0,0,.766.7,4.113,4.113,0,0,0,3.73,1.179l.734-.2a30.958,30.958,0,0,0,6.137,10.431q1.084,1.212,2.248,2.289c-2.707,3.1-5.007,5-9.756,5.5-4.8.51-9.7-1.26-12.96-2.96a9.495,9.495,0,0,0,4.89-4.22,7.57,7.57,0,0,0,.7-2.09c.3-1.16-.17-2.37-.32-3.56A9.033,9.033,0,0,1,39.2,68.632Z"/><path class="d" d="M44.012,221.95q.423-3.079.912-6.148c2.446.241,4.8.391,6.612.43,6.956.148,25.934.741,26.221.741,5.86,0,15.581-.175,24.345-.471,2.05-.069,4.195-.256,6.265-.5.458,3.429.888,7.038,1.278,10.937,0,0,.01.16.03.31l-.21.23c-.97,1.08-8.09,2.09-14.34,2.4-6.35.31-13.4.33-17.65.33-3.71,0-12.42-.22-18.89-.71-6.65-.5-13.36-.96-15.26-2.1.03-.27.05-.46.05-.46Q43.671,224.444,44.012,221.95Z"/><path class="e" d="M17.152,160.01q-.894-.468-1.771-.969c4.038-9.939,7.644-21.36,11.682-31.3,2.89-7.113,5.76-15.469,9.983-21.881S51.565,94.306,59.365,92.276a23.945,23.945,0,0,0,32.861-.784c8.542,3.066,18.181,8.63,22.45,15.11,4.223,6.412,7.174,14.027,10.064,21.14,4.037,9.939,7.643,21.36,11.681,31.3a53.586,53.586,0,0,1-18.77,6.489l-3.8.716c.629,4.229,1.3,8.674,2.014,13.245,1.667,10.647,4.207,21.918,5.259,32.93a1.147,1.147,0,0,1-.907,1.45,99.41,99.41,0,0,1-18.268,2.631c-8.764.3-18.484.471-24.344.471-.288,0-19.266-.593-26.221-.741-5.223-.111-14.894-1.148-18.445-2.593a2.536,2.536,0,0,1-1.333-2.148c.212-7.018,1.4-12.886,2.333-19.926,1.084-8.144,2.417-17.064,3.687-25.308-1.778-.368-3.47-.727-3.47-.727A53.6,53.6,0,0,1,17.152,160.01Z"/><path class="a" d="M99.593,94.657a66.587,66.587,0,0,0-7.374-3.172,23.928,23.928,0,0,1-32.854.791,52.177,52.177,0,0,0-9.588,3.6,27.376,27.376,0,0,0,7.937,12.174l.141.068a10.547,10.547,0,0,0,2.68,1.69,11.241,11.241,0,0,0,8.7-.31,21.807,21.807,0,0,0,6.43-4.53,21.678,21.678,0,0,0,6.43,4.53,11.241,11.241,0,0,0,8.7.31,10.4,10.4,0,0,0,2.82-1.82l-.035.062A27.368,27.368,0,0,0,101.573,95.7Q100.594,95.161,99.593,94.657Z"/><path class="b" d="M42.453,62.9c-4.041,1.042-5.831,4.923-5.406,8.859a13.96,13.96,0,0,1,.409,3.188A5.151,5.151,0,0,1,36.4,77.392a8.755,8.755,0,0,1-3.613,2.669,2.012,2.012,0,0,0,0,3.454c4.5,2.318,9.6,3.81,14.7,3.143A14.915,14.915,0,0,0,53.409,84.7a20.322,20.322,0,0,0,4.52-4.037c1.7-1.926-1.124-4.766-2.828-2.829-2.227,2.531-4.544,4.387-7.976,4.872-4.232.6-8.587-.723-12.321-2.645v3.454c3.354-1.585,6.127-4.327,6.618-8.159.251-1.96-.7-3.839-.371-5.812a3.158,3.158,0,0,1,2.466-2.787c2.49-.643,1.435-4.5-1.064-3.857Z"/><path class="b" d="M39.2,139.787c-.872,9.512-2.283,18.941-3.728,28.378-1.489,9.731-2.782,19.488-4.23,29.224-.35,2.355-.692,4.713-.962,7.079a38.289,38.289,0,0,0-.5,7.383c.34,3.955,5,4.5,8.088,5.025a135.033,135.033,0,0,0,19.233,1.5q8.857.24,17.714.516c5.776.173,11.557.022,17.333-.107,4.644-.1,9.322-.11,13.95-.539a112.218,112.218,0,0,0,11.959-1.784,24.8,24.8,0,0,0,2.724-.62c2.159-.7,2.615-2.287,2.4-4.36-.527-5.108-1.328-10.185-2.211-15.242-1.74-9.972-3.462-19.928-4.954-29.942-1.232-8.27-2.382-16.558-3.785-24.8-.253-1.488-.518-2.975-.805-4.458-.49-2.524-4.346-1.455-3.857,1.064,3.165,16.335,4.847,32.934,7.77,49.314.869,4.876,1.789,9.744,2.572,14.635.376,2.349.723,4.7,1.006,7.065q.112.947.214,1.893c.032.3-.011,1.385.157,1.557.2.2.353-.631.429-.581a2.127,2.127,0,0,0-.481.126,100.911,100.911,0,0,1-21.879,2.542c-6.759.19-13.57.5-20.331.3q-7.452-.216-14.9-.441c-5.732-.164-11.491-.147-17.2-.709a57.8,57.8,0,0,1-9.8-1.595,4.655,4.655,0,0,1-1.267-.455c-.4-.641-.024-2.16.024-2.9.153-2.344.41-4.68.727-7.007q1.917-14.032,4.027-28.045c1.377-9.146,2.867-18.274,3.9-27.468q.368-3.268.665-6.543a2.016,2.016,0,0,0-2-2,2.043,2.043,0,0,0-2,2Z"/><path class="b" d="M56.439,95.442c1.417-.584,2.785-1.287,4.178-1.925l.316-.143c.249-.115-.55.229-.352.148a6.248,6.248,0,0,0,.575-.251,8.62,8.62,0,0,0,1.871-1.395,9.04,9.04,0,0,0,2.161-3.451A17.414,17.414,0,0,0,66,84.715a2.21,2.21,0,0,0-.2-1.541,2,2,0,0,0-3.655.477,20.924,20.924,0,0,1-.609,3.11c-.066.221-.142.437-.219.655a.823.823,0,0,0-.063.162c0,.008.184-.395.087-.208-.064.122-.116.251-.18.374a6.582,6.582,0,0,1-.4.677c-.042.062-.288.4-.1.151s-.116.127-.175.191c-.183.2-.382.38-.584.561-.275.247.267-.177-.047.04-.144.1-.289.2-.439.293-.369.229-.022.027.111.008a2.418,2.418,0,0,0-.523.22L58.736,90c-.664.3-1.323.614-1.983.924l-1.14.535c-.235.109-1.214.528-.237.126a2.2,2.2,0,0,0-1.2.919,2,2,0,0,0,2.259,2.938Z"/><path class="b" d="M86.557,83.493c.336,2.608.682,5.323,2.339,7.468a8.557,8.557,0,0,0,1.582,1.571,8.337,8.337,0,0,0,1.011.694,4.12,4.12,0,0,0,.638.29c.109.038-.617-.274-.342-.144.661.312,1.328.614,1.99.925s1.339.653,2.023.943a2.2,2.2,0,0,0,1.541.2,2,2,0,0,0,.478-3.656c-.748-.317-1.477-.687-2.213-1.032q-.681-.32-1.364-.637c-.145-.067-.29-.134-.436-.2a5.68,5.68,0,0,0-.574-.243c-.156.031.432.237.2.054a4.824,4.824,0,0,0-.482-.31q-.273-.2.03.033c-.078-.062-.156-.127-.231-.193-.213-.185-.7-.539-.788-.818q.26.342.07.082c-.051-.072-.1-.145-.148-.219-.094-.145-.182-.3-.265-.447-.033-.061-.171-.441-.225-.456.117.286.136.329.055.131-.03-.077-.059-.155-.087-.233a12.054,12.054,0,0,1-.487-1.869c-.073-.39-.14-.78-.2-1.171q-.049-.31-.095-.621c-.014-.094-.027-.187-.04-.282q.061.462.019.137a2.053,2.053,0,0,0-2-2c-.969.044-2.143.889-2,2Z"/><path class="b" d="M105.78,50.875a2.221,2.221,0,0,1,3.227.53,5.425,5.425,0,0,1,.386,2.395,14.353,14.353,0,0,1-.2,2.891,15.273,15.273,0,0,1-2.046,5.409,7.507,7.507,0,0,1-1.608,1.884,1.473,1.473,0,0,1-1.563.414c-2.49-.664-3.552,3.194-1.063,3.857,3.162.844,5.639-1.188,7.364-3.648a18.433,18.433,0,0,0,2.989-8.312c.337-2.768.328-6.271-1.912-8.284a6.36,6.36,0,0,0-8.4.035,2.016,2.016,0,0,0,0,2.829,2.044,2.044,0,0,0,2.828,0Z"/><path class="b" d="M101.329,63.644a14.1,14.1,0,0,1-.943,4.033c-.085.242-.181.482-.26.726-.107.332.223-.41.039-.1-.156.266-.271.563-.416.837a34.372,34.372,0,0,1-3.158,4.836C93.759,77.646,90,81.456,85.3,82.485c-2.513.551-1.449,4.408,1.064,3.857,5.557-1.217,10.007-5.586,13.37-9.94,2.876-3.723,5.386-7.923,5.6-12.758.112-2.574-3.888-2.569-4,0Z"/><path class="b" d="M47.458,48.046a6.362,6.362,0,0,0-8.4-.035c-2.3,2.067-2.246,5.687-1.881,8.512a18.146,18.146,0,0,0,3.13,8.323c1.781,2.443,4.436,4.515,7.613,3.814A2,2,0,1,0,46.86,64.8c-1.344.3-2.781-1.476-3.433-2.457a15.044,15.044,0,0,1-2.176-5.5A14.359,14.359,0,0,1,41.013,54a5.725,5.725,0,0,1,.39-2.595,2.22,2.22,0,0,1,3.227-.53,2.055,2.055,0,0,0,2.828,0,2.016,2.016,0,0,0,0-2.829Z"/><path class="b" d="M45.1,63.09a33.11,33.11,0,0,0,7.607,15.13c4,4.532,9.348,8.281,15.44,9.149a2.067,2.067,0,0,0,2.46-1.4,2.013,2.013,0,0,0-1.4-2.46c-10.486-1.493-18.22-11.6-20.252-21.485-.519-2.52-4.375-1.453-3.858,1.063Z"/><path class="b" d="M109.486,48.74c1.457-8.956.559-18.445-4.437-26.226A34.638,34.638,0,0,0,84.42,7.842a37.031,37.031,0,0,0-25.581,2.814A34.507,34.507,0,0,0,44.789,24.2a33.279,33.279,0,0,0-3.946,12.477,43.89,43.89,0,0,0,.564,12.067,2.015,2.015,0,0,0,2.46,1.4,2.048,2.048,0,0,0,1.4-2.46c-1.042-6.437-.905-13.112,1.81-19.148A30.388,30.388,0,0,1,58.123,15.709c13.04-8.551,31.508-5.743,41.508,6.143,6.006,7.138,7.461,16.829,6,25.825a2.06,2.06,0,0,0,1.4,2.46,2.016,2.016,0,0,0,2.46-1.4Z"/><path class="b" d="M70.11,72.345a8.55,8.55,0,0,0,5.951,1.973,8.563,8.563,0,0,0,5.952-1.973,2,2,0,0,0-2.828-2.828c-.077.075-.371.31-.041.055s-.04.018-.138.078c-.117.072-.238.139-.362.2-.081.041-.173.073-.252.118.1-.058.465-.177.15-.069a8.368,8.368,0,0,1-1.206.33c-.151.028-.489.172-.019.014a1.631,1.631,0,0,1-.37.037q-.442.037-.886.037c-.27,0-.541-.01-.811-.03a2.718,2.718,0,0,0-.447-.044c.192-.023.352.053.048,0a7.367,7.367,0,0,1-1.223-.323c-.161-.059-.419-.229.1.05-.068-.036-.142-.064-.211-.1-.138-.068-.272-.141-.4-.221-.1-.061-.191-.136-.291-.2.577.351.277.224.113.064a2,2,0,0,0-2.828,2.828Z"/><path class="b" d="M75.079,59.8a26.3,26.3,0,0,1,.618,2.831l-.071-.532a1.7,1.7,0,0,1,.01.391l.072-.532a.962.962,0,0,1-.043.176l.2-.478a.772.772,0,0,1-.062.113l.312-.405a.528.528,0,0,1-.092.091l.405-.312a1.786,1.786,0,0,1-.225.118l.478-.2a1.655,1.655,0,0,1-.378.11l.532-.071a1.506,1.506,0,0,1-.355,0l.532.071c-.134-.018-.265-.051-.4-.069a1.523,1.523,0,0,0-.8-.036,1.487,1.487,0,0,0-.744.238,2,2,0,0,0-.718,2.736,1.914,1.914,0,0,0,1.2.919c.353.048.695.136,1.055.152a3.459,3.459,0,0,0,1.617-.394,2.457,2.457,0,0,0,1.325-1.6,3.788,3.788,0,0,0-.014-1.665c-.154-.912-.365-1.816-.6-2.711a2.068,2.068,0,0,0-.919-1.2,2.041,2.041,0,0,0-1.542-.2,2.02,2.02,0,0,0-1.195.919,2.1,2.1,0,0,0-.2,1.541Z"/><path class="b" d="M60.809,52.215c-.463,1.5-.161,4.957,2.684,5.251,3.76-.023,3.96-4.2,2.7-6.164C65.151,49.694,62.1,49.026,60.809,52.215Z"/><path class="b" d="M90.8,52.215c.462,1.5.161,4.957-2.684,5.251-3.761-.023-3.961-4.2-2.695-6.164C86.456,49.694,89.5,49.026,90.8,52.215Z"/><path class="b" d="M58.107,93.69a25.936,25.936,0,0,0,34.417.392c1.973-1.658-.869-4.475-2.829-2.828a22.21,22.21,0,0,1-28.76-.392c-1.923-1.7-4.762,1.12-2.828,2.828Z"/><path class="b" d="M55.66,273.67c-2.406,2.221-4.728,3.94-8.015,4.585-3,.589-7.245.311-9.132-2.469-1.971-2.9.249-6.078,2.216-8.254,2.624-2.9,5.3-5.761,7.84-8.741q.915-1.074,1.8-2.17.442-.549.876-1.1c.167-.214.557-.956.828-1.028-.323.085.282.209.361.239a9.254,9.254,0,0,0,1.047.324,17.494,17.494,0,0,0,2.818.416c3.438.28,6.855.272,10.015-1.266a14.291,14.291,0,0,0,2.026-1.226c.63-.448.324-.176.242-.255l-.288.034a1.172,1.172,0,0,1-.879-.348c.259.072-.111-.223.046.074.263.5-.121-.389.1.2a10.1,10.1,0,0,1,.4,1.52,30.265,30.265,0,0,1,.463,4.766,17.425,17.425,0,0,1-.12,4.775c-.385,1.58-1.6,2.3-2.955,3.057a50.022,50.022,0,0,0-4.785,2.8,50.85,50.85,0,0,0-4.909,4.075c-1.9,1.75.938,4.573,2.829,2.829a38.207,38.207,0,0,1,5.193-4.192c1.559-1,3.278-1.721,4.829-2.732a8.035,8.035,0,0,0,3.464-4.116,14.912,14.912,0,0,0,.5-5.458c-.11-2.772-.131-13.258-5.32-10.986a20.2,20.2,0,0,0-1.992,1.267,9.714,9.714,0,0,1-2.6,1.074,20.024,20.024,0,0,1-6.26.112c-1.8-.146-3.607-1.293-5.4-.778-2.014.579-3.283,3.039-4.552,4.554-2.959,3.533-6.188,6.823-9.2,10.3-2.771,3.2-4.51,7.531-2.471,11.581,2.175,4.321,7.518,5.722,12,5.275a18.171,18.171,0,0,0,6.9-2.036,25.969,25.969,0,0,0,4.909-3.869C60.385,274.749,57.551,271.926,55.66,273.67Z"/><path class="b" d="M50.487,230.044c-.062,4.16-.119,8.32-.24,12.479-.052,1.777-.114,3.555-.212,5.33-.041.756-.089,1.512-.153,2.266q-.034.422-.078.843c-.017.156-.035.313-.053.469-.039.331.068-.462-.007.047a2.064,2.064,0,0,0,1.4,2.46,2.015,2.015,0,0,0,2.461-1.4,82.768,82.768,0,0,0,.636-9.677c.128-4.272.186-8.546.25-12.82.038-2.575-3.962-2.576-4,0Z"/><path class="b" d="M68.56,230.82c-.74,6.734-1.6,13.455-2.332,20.19a2.012,2.012,0,0,0,2,2,2.047,2.047,0,0,0,2-2c.736-6.735,1.592-13.456,2.332-20.19a2.013,2.013,0,0,0-2-2,2.047,2.047,0,0,0-2,2Z"/><path class="b" d="M96.362,276.5c2.85,2.7,5.8,4.9,9.752,5.652,4.067.768,9.038.288,12.03-2.891s2.957-7.672.821-11.327a32.5,32.5,0,0,0-4-4.962c-1.492-1.678-2.989-3.352-4.454-5.055s-2.881-3.413-4.23-5.194a5,5,0,0,0-2.31-1.977,4.389,4.389,0,0,0-3.056.247,17.972,17.972,0,0,1-5.533.594,9.625,9.625,0,0,1-5.294-1.2c-1.259-.734-2.343-1.969-3.944-1.529a3.785,3.785,0,0,0-2.326,2.58,22.417,22.417,0,0,0-1.022,6.688c-.171,3.571-.55,7.823,2.435,10.416a36.906,36.906,0,0,0,5.351,3.307,35,35,0,0,1,5.781,4.655c1.869,1.769,4.7-1.055,2.829-2.829a40.558,40.558,0,0,0-8.585-6.388c-1.151-.624-2.649-1.283-3.34-2.46a7.334,7.334,0,0,1-.579-3.746,47.6,47.6,0,0,1,.365-5.943,17.676,17.676,0,0,1,.488-2.255c.008-.026.192-.665.079-.244.132-.494.119-.042.021-.129l.093-.1a1.212,1.212,0,0,1-.892.348c-.486,0-.689-.23-.071.221,2.965,2.162,6.115,2.681,9.707,2.588a23.834,23.834,0,0,0,4.46-.429,15.922,15.922,0,0,1,1.84-.612c-.327.021.169.384.33.589.392.5.773,1.009,1.166,1.509,2.3,2.925,4.774,5.707,7.246,8.486,2.086,2.346,5.445,5.237,5.024,8.748-.463,3.86-4.942,4.82-8.145,4.593-3.811-.27-6.538-2.25-9.207-4.778C97.322,271.9,94.488,274.724,96.362,276.5Z"/><path class="b" d="M99.228,230.454q.1,6.234.441,12.46c.172,3.173.33,6.37.8,9.516a2.014,2.014,0,0,0,2.46,1.4,2.051,2.051,0,0,0,1.4-2.46,1.889,1.889,0,0,1-.045-.338c-.031-.289-.066-.578-.1-.867-.071-.7-.131-1.4-.186-2.1-.144-1.82-.254-3.644-.351-5.467q-.321-6.063-.424-12.137c-.04-2.571-4.041-2.579-4,0Z"/><path class="b" d="M81.856,230.835c.753,6.968,1.093,13.976,1.846,20.944a2.059,2.059,0,0,0,2,2,2.013,2.013,0,0,0,2-2c-.753-6.968-1.093-13.976-1.846-20.944a2.059,2.059,0,0,0-2-2,2.013,2.013,0,0,0-2,2Z"/><path class="b" d="M58.989,90.348c-9.46,2.5-19.459,7.584-24.594,16.234a106.629,106.629,0,0,0-7.114,15.606c-2.157,5.488-4.334,10.961-6.337,16.509-2.391,6.624-4.691,13.284-7.335,19.813a2,2,0,0,0,.92,2.258,56.116,56.116,0,0,0,19.248,6.691,2.066,2.066,0,0,0,2.46-1.4,2.016,2.016,0,0,0-1.4-2.46,53.107,53.107,0,0,1-18.293-6.288l.92,2.259c4.435-10.955,8.084-22.21,12.442-33.2a161.017,161.017,0,0,1,6.423-15.039,29.514,29.514,0,0,1,3.881-6.12,27.11,27.11,0,0,1,5.055-4.342,48.471,48.471,0,0,1,14.785-6.669c2.486-.658,1.432-4.518-1.064-3.857Z"/><path class="b" d="M92.116,93.512a60.133,60.133,0,0,1,13.565,6.973,33.9,33.9,0,0,1,5.342,4.54,29.348,29.348,0,0,1,4.021,5.758,125.032,125.032,0,0,1,6.938,15.058c2.1,5.183,4.073,10.406,5.962,15.67,2.17,6.044,4.3,12.108,6.7,18.062l.919-2.259a53.1,53.1,0,0,1-18.292,6.288,2.013,2.013,0,0,0-1.4,2.46,2.051,2.051,0,0,0,2.46,1.4,56.123,56.123,0,0,0,19.248-6.691,2.012,2.012,0,0,0,.919-2.258c-4.453-11-8.046-22.323-12.5-33.325a143.611,143.611,0,0,0-7.075-15.653A37.616,37.616,0,0,0,114.575,103a34.849,34.849,0,0,0-5.412-4.905,61.839,61.839,0,0,0-15.984-8.436c-2.419-.891-3.463,2.973-1.063,3.857Z"/><path class="b" d="M17.393,161a35.562,35.562,0,0,1-2.874,5.767,60.46,60.46,0,0,1-4.539,5.562c-1.578,1.743-3.261,3.367-4.959,4.99A19.47,19.47,0,0,0,1.134,182a7.993,7.993,0,0,0-.879,5.954c.725,2.413,3.176,3.314,5.5,3.149a15.352,15.352,0,0,0,6.736-2.635,58.312,58.312,0,0,0,6.033-4.277l-3.342-.883c1.13,4.386,7.892,6.284,10.712,2.421,1.327-1.819,1.38-4.461,1.75-6.615.319-1.86.6-3.753,1.093-5.577.673-2.488-3.185-3.549-3.858-1.063-.761,2.816-1.105,5.767-1.623,8.635-.2,1.113-.16,2.628-1.566,2.681a2.454,2.454,0,0,1-2.651-1.545,2.028,2.028,0,0,0-3.343-.883,50.222,50.222,0,0,1-4.833,3.412c-1.544.961-3.258,2.105-5.108,2.329-.67.081-1.555.2-1.736-.562a3.482,3.482,0,0,1,.253-1.828,11.193,11.193,0,0,1,2.875-3.885,113.319,113.319,0,0,0,7.879-8.241,39.641,39.641,0,0,0,3.576-4.754,52.628,52.628,0,0,0,2.245-4.815,2.058,2.058,0,0,0-.718-2.737,2.016,2.016,0,0,0-2.736.718Z"/><path class="b" d="M130.918,163.021c.717,1.538,1.277,3.147,2.129,4.622a37.067,37.067,0,0,0,3.547,4.772,111.854,111.854,0,0,0,8.023,8.416,11.459,11.459,0,0,1,2.841,3.785,3.66,3.66,0,0,1,.287,1.928c-.17.708-.865.623-1.518.574-1.865-.14-3.581-1.266-5.13-2.221a50.3,50.3,0,0,1-5.029-3.532,2.028,2.028,0,0,0-3.343.883,2.457,2.457,0,0,1-2.651,1.545c-1.405-.053-1.366-1.575-1.566-2.681-.517-2.868-.862-5.819-1.623-8.635-.672-2.482-4.532-1.429-3.857,1.063.48,1.776.754,3.618,1.067,5.43.379,2.2.423,4.907,1.775,6.762,2.819,3.866,9.583,1.964,10.712-2.421l-3.342.883a58.312,58.312,0,0,0,6.033,4.277,15.352,15.352,0,0,0,6.736,2.635c2.324.165,4.775-.736,5.5-3.149a8,8,0,0,0-.88-5.954,19.446,19.446,0,0,0-3.887-4.682c-1.7-1.623-3.381-3.247-4.959-4.99a60.46,60.46,0,0,1-4.539-5.562A35.562,35.562,0,0,1,134.371,161a2.016,2.016,0,0,0-2.736-.718,2.045,2.045,0,0,0-.717,2.737Z"/><path class="b" d="M48.486,97.8c2.084,5.347,5.836,11.356,11.2,13.738,6.395,2.842,12.947-.743,17.554-5.153H74.407c2.742,2.626,5.97,5.02,9.757,5.822a12.407,12.407,0,0,0,11.022-2.8l-3.141-2.423-.035.061a2.009,2.009,0,0,0,3.141,2.424,29.281,29.281,0,0,0,7.97-11.667,2.015,2.015,0,0,0-1.4-2.46,2.047,2.047,0,0,0-2.46,1.4,25.134,25.134,0,0,1-6.941,9.9l3.141,2.423L95.5,109a2.009,2.009,0,0,0-3.141-2.424c-4.969,4.244-11.14.792-15.121-3.02a2.039,2.039,0,0,0-2.829,0c-3.388,3.243-8.644,6.7-13.424,4.183-4.03-2.122-7-6.8-8.64-11a2.059,2.059,0,0,0-2.46-1.4,2.015,2.015,0,0,0-1.4,2.46Z"/><path class="f" d="M69.8,169.454c-10.666-17.185-21.719-52.077-23.87-72.944,1.222-1.112,7.241-4.389,8.8-4.389,1.445,17.222,14.556,59.7,24.037,72.444"/><path class="b" d="M71.522,168.445c-5-8.087-8.68-16.991-11.929-25.9a244.432,244.432,0,0,1-9.08-30.889A135.642,135.642,0,0,1,47.925,96.51l-.586,1.414c.3-.262-.263.124,0-.008a4.059,4.059,0,0,0,.389-.272c.323-.22.656-.426.99-.629.772-.466,1.561-.9,2.361-1.321.721-.376,1.454-.751,2.2-1.068a10.788,10.788,0,0,1,1.061-.392c.118-.036.238-.064.355-.1.491-.151-.366,0,.026-.013l-2-2c.841,9.787,3.46,19.5,6.166,28.9a247.052,247.052,0,0,0,11.492,32.341,64.627,64.627,0,0,0,6.652,12.21,2.062,2.062,0,0,0,2.737.717,2.014,2.014,0,0,0,.717-2.736,59.19,59.19,0,0,1-5.782-10.3c-2.209-4.748-4.119-9.631-5.9-14.554a277.381,277.381,0,0,1-9.619-32.447,105.6,105.6,0,0,1-2.463-14.136,2.033,2.033,0,0,0-2-2c-2.246.1-4.525,1.488-6.449,2.538a28.079,28.079,0,0,0-2.808,1.7A4.142,4.142,0,0,0,44.2,95.5a3.6,3.6,0,0,0-.13,2.308,155.912,155.912,0,0,0,3.19,17.548A239.794,239.794,0,0,0,59.45,153.117a124.137,124.137,0,0,0,8.618,17.346c1.351,2.186,4.813.18,3.454-2.018Z"/><path class="f" d="M75.365,193.733a5.86,5.86,0,0,1-1.722-1.725c-2.073-3.265-4.46-12.763-4.383-19.623.028-2.511,2.692-6.024,5.692-6.92,12-3.534,21.027-4.876,32.751-8.282a4.6,4.6,0,0,1,5.186,2.072c2.232,2.837,4.154,6.145,5.4,12.493.964,4.924.418,15.474-4.359,17.008a189.242,189.242,0,0,1-29.295,6.384l-1.326.118A12.565,12.565,0,0,1,75.365,193.733Z"/><path class="b" d="M72.319,165.053a7.913,7.913,0,0,0-3.857,3.421,9.574,9.574,0,0,0-1.17,5.707,54.644,54.644,0,0,0,1.877,11.7c.764,2.848,1.665,6.33,3.819,8.481,2.7,2.692,6.906,3.186,10.519,2.876a122.815,122.815,0,0,0,12.609-2.01c4.594-.883,9.165-1.906,13.674-3.155,3.338-.924,6.686-1.527,8.571-4.706a19.98,19.98,0,0,0,2.255-8.859,30.5,30.5,0,0,0-6.313-20.669,2.012,2.012,0,0,0-2.829,0,2.051,2.051,0,0,0,0,2.828,25.931,25.931,0,0,1,5.2,15.019,24.04,24.04,0,0,1-.881,7.578,8.745,8.745,0,0,1-1.258,2.654,2.5,2.5,0,0,1-.84.76,14.233,14.233,0,0,1-1.975.67,179.077,179.077,0,0,1-23.336,5.2c-3.139.51-6.524,1.243-9.677.448a5.638,5.638,0,0,1-3.252-1.877,10.925,10.925,0,0,1-1.322-2.762A49.346,49.346,0,0,1,71.6,177.717a24.2,24.2,0,0,1-.33-5.511,4.54,4.54,0,0,1,.941-2.163,5.8,5.8,0,0,1,1.173-1.133c2.389-.893,1.355-4.761-1.064-3.857Z"/><path class="b" d="M95.447,173l3.4-.7a2,2,0,0,0,.478-3.656l-.478-.2a2.018,2.018,0,0,0-1.063,0l-3.4.7a2,2,0,0,0-.478,3.656l.478.2a2,2,0,0,0,1.064,0Z"/><path class="b" d="M89.333,182.383c3.965-.885,7.929-1.788,11.818-2.967,1.916-.58,3.811-1.225,5.687-1.922a27.894,27.894,0,0,0,5.9-2.668,13.175,13.175,0,0,0,3.909-3.635,9.189,9.189,0,0,0,.9-5.269,14.4,14.4,0,0,0-3.195-7.406A8.677,8.677,0,0,0,111.1,155.6c-1.986-.918-3.752-.387-5.755.173-4.235,1.183-8.512,2.2-12.8,3.191-4.224.976-8.451,1.939-12.643,3.042-3.215.846-10.533,1.9-8.284,6.927a50.909,50.909,0,0,0,5.936,10.56c2.862,3.681,7.549,3.784,11.778,2.887,2.517-.534,1.452-4.391-1.063-3.857-2.724.578-5.883.78-7.729-1.659a45.885,45.885,0,0,1-4.594-8.1,14.462,14.462,0,0,0-.774-1.638c.024,0,.672,1.983-.026.258.4.984-.174.1.008.179a8.4,8.4,0,0,0,1.035-.377q2.815-.818,5.656-1.55c3.562-.922,7.148-1.749,10.733-2.575,3.508-.808,7.015-1.623,10.5-2.532q1.441-.375,2.876-.772a12.5,12.5,0,0,1,2.66-.723,3.024,3.024,0,0,1,2.168,1.369,12.5,12.5,0,0,1,2.674,4.936,7.7,7.7,0,0,1,.1,1.845,10.089,10.089,0,0,1-.116,1.125,5.288,5.288,0,0,1-.131.686c.058-.192.119-.209,0-.008a8.836,8.836,0,0,1-2.758,2.494,26.773,26.773,0,0,1-5.568,2.447q-2.6.945-5.256,1.74c-3.772,1.126-7.613,2-11.453,2.857C85.759,179.086,86.821,182.943,89.333,182.383Z"/><path class="b" d="M106.365,216c.5,3.744.91,7.5,1.31,11.25l.586-1.414-.21.23c-.024-.02.149-.1.058-.056-.055.027-.347.132-.145.079.237-.062-.186.061-.233.076a19.917,19.917,0,0,1-2.433.6,63.537,63.537,0,0,1-6.72.878c-5.039.433-10.116.493-15.171.54-8.278.078-16.564-.074-24.822-.686-2.935-.217-5.873-.42-8.8-.741-1.157-.126-2.313-.272-3.455-.5a8.329,8.329,0,0,1-2-.584l.991,1.727c.4-3.7.945-7.39,1.529-11.068a2.062,2.062,0,0,0-1.4-2.46,2.017,2.017,0,0,0-2.461,1.4c-.639,4.03-1.227,8.075-1.671,12.131a1.952,1.952,0,0,0,.991,1.727c1.921,1.071,4.325,1.255,6.461,1.516,3.177.388,6.374.6,9.565.839,5.4.4,10.824.607,16.242.7,5.043.085,10.095.028,15.137-.1,5.8-.152,11.732-.354,17.418-1.614,1.892-.419,4.586-1.121,4.506-3.524-.121-3.63-.8-7.34-1.28-10.94a2.067,2.067,0,0,0-2-2c-.97,0-2.144.922-2,2Z"/><path class="b" d="M105.5,46.226A83.216,83.216,0,0,1,96.354,40.3c-3.419-2.629-6.662-6.194-8.028-10.358a2.018,2.018,0,0,0-3.342-.882,25.721,25.721,0,0,1-6.55,5.474,17.865,17.865,0,0,1-3.317,1.524,14.636,14.636,0,0,1-1.59.43c-.228.048-.459.093-.69.12-.272.032-.943-.124-.249.09l.882.515a1.452,1.452,0,0,1,.4.882l.006-.174c-.136.156.022-.143.067-.34.128-.558.29-1.107.465-1.652.356-1.1.769-2.191,1.192-3.271.636-1.624-1.551-3.177-2.938-2.259-7.256,4.8-13.9,10.633-21.7,14.584-2.3,1.165-.275,4.617,2.018,3.454,7.793-3.951,14.441-9.784,21.7-14.584L71.74,31.589a26.648,26.648,0,0,0-1.778,5.6,3.062,3.062,0,0,0,.68,2.845c.947.9,2.331.59,3.484.391,5.312-.915,10.222-4.564,13.686-8.544L84.469,31c2.9,8.839,11.348,14.262,19.008,18.679,2.234,1.289,4.251-2.166,2.019-3.453Z"/><path class="b" d="M50.969,44.979c-.668.327-1.34.646-2.025.937l.478-.2a12.647,12.647,0,0,1-3.035.938l.531-.072-.074.01a2.216,2.216,0,0,0-1.414.586,2,2,0,0,0,0,2.828,1.913,1.913,0,0,0,1.414.586A13.137,13.137,0,0,0,50,49.771c1.016-.4,2.008-.858,2.989-1.338a2.019,2.019,0,0,0,.919-1.2,2,2,0,0,0-1.4-2.46,2.224,2.224,0,0,0-1.542.2Z"/><path class="f" d="M34.952,38.606a3.815,3.815,0,0,1,1.325-3.039,26.152,26.152,0,0,1,6.04-3.987c.013-.037.025-.077.037-.12a33.512,33.512,0,0,1,9.891-15.5,31.713,31.713,0,0,1,22.29-7.939c3.477.215,6.73.154,10.105,1.278,3.029,1.011,6.822,2.35,9.473,4.219a35.512,35.512,0,0,1,12.032,16.175,10.2,10.2,0,0,1,.441,1.41,27.7,27.7,0,0,1,7.037,4.464,3.746,3.746,0,0,1,1.3,3.3,3.3,3.3,0,0,1-1.417,2.8c-5.647,3.8-25.08,5.862-38.558,5.862-13.781,0-32.9-2.06-38.544-5.862a3.3,3.3,0,0,1-1.417-2.8C34.968,38.78,34.958,38.693,34.952,38.606Z"/><path class="b" d="M70.87,9.171c-4.681,2.008-7.613,7.2-8.921,11.9a67.24,67.24,0,0,0-2.292,14.417c-.131,2.573,3.87,2.566,4,0a63.7,63.7,0,0,1,1.988-12.755c1.035-3.962,3.167-8.362,7.244-10.111a2.011,2.011,0,0,0,.717-2.736,2.052,2.052,0,0,0-2.736-.718Z"/><path class="b" d="M76.351,12.181c3.139,1.548,5,5.664,6.206,8.836a40.339,40.339,0,0,1,2.73,14.622c-.022,2.575,3.978,2.577,4,0a43.379,43.379,0,0,0-3.143-16.374c-1.559-3.879-3.818-8.587-7.774-10.538-2.3-1.135-4.33,2.314-2.019,3.454Z"/><path class="b" d="M106.6,33.319c1.717.872,7.882,3.63,6.137,6.347a5.444,5.444,0,0,1-2.3,1.346,32.372,32.372,0,0,1-3.486,1.121,106.486,106.486,0,0,1-19.842,2.931,165.411,165.411,0,0,1-21.157.211,124.936,124.936,0,0,1-20.84-2.6c-2.515-.571-5.244-1.168-7.321-2.493a1.965,1.965,0,0,1-.227-3.074,20.066,20.066,0,0,1,5.74-3.792c2.3-1.166.273-4.618-2.019-3.454-3.582,1.819-8.83,4.58-8.264,9.32a5.547,5.547,0,0,0,2.831,4.5,19.64,19.64,0,0,0,3.511,1.542c7,2.445,14.745,3.157,22.088,3.744a167.141,167.141,0,0,0,24.122.2c7.673-.5,15.566-1.235,22.991-3.331,2.885-.814,7.151-1.987,8.089-5.25a6.315,6.315,0,0,0-1.486-6.306,24.534,24.534,0,0,0-6.549-4.418c-2.291-1.163-4.318,2.287-2.019,3.454Z"/><path class="b" d="M97.744,32.271A49.364,49.364,0,0,1,89.893,34q-5.394.88-10.855,1.267a111.312,111.312,0,0,1-20.2-.758,63.3,63.3,0,0,1-8.175-1.274c-2.5-.622-3.564,3.234-1.064,3.857a62.855,62.855,0,0,0,7.4,1.2q5.271.657,10.58.977a104.568,104.568,0,0,0,21.738-1.154,55.077,55.077,0,0,0,9.5-1.985c2.425-.821,1.384-4.685-1.064-3.857Z"/><path class="b" d="M109.077,32.756a36.759,36.759,0,0,0-7.793-15.264,30.021,30.021,0,0,0-6.793-6.123,39.584,39.584,0,0,0-8.607-3.76c-3.549-1.2-7.167-1.36-10.876-1.56a32.989,32.989,0,0,0-8.984.709,34.511,34.511,0,0,0-16.4,8.9,35.353,35.353,0,0,0-9.794,17.651c-.55,2.509,3.305,3.581,3.857,1.064a31.13,31.13,0,0,1,21.3-23.216,27.78,27.78,0,0,1,8.042-1.186,44.484,44.484,0,0,1,9.243.75A28.652,28.652,0,0,1,97.1,18.792a32.754,32.754,0,0,1,8.118,15.027c.572,2.509,4.429,1.447,3.857-1.063Z"/><path class="f" d="M72.282,2.824a4.588,4.588,0,0,0-2.32,4.319,3.609,3.609,0,0,0,1,2.426A4.308,4.308,0,0,0,74.7,10.733c1.99-.3,3.713-.907,4.374-2.287a4.408,4.408,0,0,0-.351-4.686C77,1.393,73.808,1.793,72.282,2.824Z"/><path class="b" d="M71.273,1.1A7.414,7.414,0,0,0,68.8,3.588a7.369,7.369,0,0,0-.834,3.739A5.878,5.878,0,0,0,73.5,12.762a9.177,9.177,0,0,0,4-.659,5.862,5.862,0,0,0,3.274-2.6,6.7,6.7,0,0,0,.575-4.862A6.554,6.554,0,0,0,78.664,1a7.034,7.034,0,0,0-7.391.093,2.036,2.036,0,0,0-.718,2.737,2.029,2.029,0,0,0,2.737.717c.121-.08.245-.155.374-.223.081-.042.169-.075.248-.12-.48.272-.334.13-.167.075.339-.113.695-.165,1.031-.272-.514.164-.319.037-.109.019.071-.006.143-.011.214-.015a5.439,5.439,0,0,1,.6.006c.091.006.184.024.274.026-.546-.009-.321-.054-.149-.009.2.052.395.106.593.163.394.113-.423-.224-.058-.029.067.036.137.068.2.105.1.056.2.122.3.181.35.2-.27-.244-.07-.065a5.839,5.839,0,0,1,.447.429l.042.047c.135.163.113.13-.069-.1.095.052.184.267.242.366.043.071.213.3.2.381.016-.156-.11-.321-.037-.081.042.137.09.27.124.409.009.035.13.49.045.156-.082-.318,0,.11,0,.166.005.123,0,.245,0,.368-.008.17.074.411.016-.008a1.413,1.413,0,0,1-.1.457,1.579,1.579,0,0,1-.149.463c.219-.29.042-.087-.023.04-.044.085-.1.164-.141.247-.18.334.263-.24.076-.089-.071.057-.13.143-.2.207-.048.047-.34.255-.061.069.3-.2-.042.022-.085.05-.1.066-.208.128-.316.185a3.581,3.581,0,0,0-.339.167c0-.063.436-.171.055-.031-.214.078-.43.146-.649.206s-.461.117-.694.165c-.12.025-.24.048-.361.07l-.294.049.223-.027a2.7,2.7,0,0,1-.828.024c-.436-.026.054-.014.052.017,0,0-.287-.059-.318-.067-.1-.025-.2-.054-.3-.086-.054-.018-.426-.166-.092-.025s-.012-.013-.066-.04c-.108-.056-.213-.117-.315-.181-.069-.043-.134-.09-.2-.135-.293-.194.331.291.161.124-.1-.095-.2-.18-.3-.279l-.045-.049q-.209-.246.059.084c-.056-.014-.154-.24-.185-.294-.041-.073-.161-.229-.158-.31.108.266.125.3.05.092-.022-.064-.041-.13-.058-.2a1.562,1.562,0,0,0-.071-.324q.057.48.035.154V7.143c0-.28.048-.556.06-.835-.023.567-.024.191.006.041.023-.114.049-.227.08-.338s.066-.209.1-.315c.1-.342-.216.423-.044.091.093-.179.194-.347.3-.52.155-.256-.118.151-.136.167.1-.087.176-.206.267-.3.146-.151.305-.286.464-.423.126-.109.222-.075-.143.109a3.791,3.791,0,0,0,.38-.269,2.039,2.039,0,0,0,.717-2.736A2.026,2.026,0,0,0,71.273,1.1Z"/></svg>